<svg width="19" height="19" viewBox="0 0 19 19" fill="none" xmlns="http://www.w3.org/2000/svg">
<path d="M9.6794 1.64235C10.8838 1.64235 11.6737 1.64235 12.0491 1.64235C12.4244 1.64235 12.8468 1.65799 13.316 1.68927C13.754 1.70491 14.102 1.74402 14.36 1.80658C14.6181 1.86915 14.8254 1.93171 14.9818 1.99428C15.2008 2.07248 15.3924 2.16633 15.5566 2.27582C15.7208 2.38531 15.8812 2.51826 16.0376 2.67467C16.194 2.83108 16.323 2.9875 16.4247 3.14391C16.5264 3.30032 16.6163 3.48802 16.6945 3.70699C16.7571 3.86341 16.8196 4.07065 16.8822 4.32873C16.9448 4.58681 16.9917 4.93483 17.023 5.37279C17.0386 5.85767 17.0503 6.28389 17.0582 6.65146C17.066 7.01903 17.0699 7.805 17.0699 9.00938C17.0699 10.2138 17.066 11.0036 17.0582 11.379C17.0503 11.7544 17.0386 12.1767 17.023 12.646C16.9917 13.0996 16.9448 13.4554 16.8822 13.7135C16.8196 13.9716 16.7571 14.1788 16.6945 14.3352C16.6163 14.5386 16.5264 14.7223 16.4247 14.8866C16.323 15.0508 16.194 15.2111 16.0376 15.3675C15.8812 15.524 15.7208 15.653 15.5566 15.7547C15.3924 15.8563 15.2008 15.9541 14.9818 16.0479C14.8254 16.1105 14.6181 16.1731 14.36 16.2356C14.102 16.2982 13.754 16.3373 13.316 16.3529C12.8468 16.3686 12.4244 16.3803 12.0491 16.3881C11.6737 16.396 10.8838 16.3999 9.6794 16.3999C8.47503 16.3999 7.68514 16.396 7.30975 16.3881C6.93436 16.3803 6.51205 16.3686 6.04281 16.3529C5.60486 16.3373 5.25684 16.2982 4.99876 16.2356C4.74068 16.1731 4.53343 16.1105 4.37702 16.0479C4.15804 15.9541 3.96644 15.8563 3.8022 15.7547C3.63797 15.653 3.47765 15.524 3.32124 15.3675C3.16482 15.2111 3.03578 15.0508 2.93412 14.8866C2.83245 14.7223 2.74251 14.5386 2.6643 14.3352C2.60174 14.1788 2.53917 13.9716 2.47661 13.7135C2.41404 13.4554 2.36712 13.0996 2.33584 12.646C2.3202 12.1767 2.30846 11.7544 2.30064 11.379C2.29282 11.0036 2.28891 10.2138 2.28891 9.00938C2.28891 7.805 2.29282 7.01903 2.30064 6.65146C2.30846 6.28389 2.3202 5.85767 2.33584 5.37279C2.36712 4.93483 2.41404 4.58681 2.47661 4.32873C2.53917 4.07065 2.60174 3.86341 2.6643 3.70699C2.74251 3.48802 2.83245 3.30032 2.93412 3.14391C3.03578 2.9875 3.16482 2.83108 3.32124 2.67467C3.47765 2.51826 3.63797 2.38531 3.8022 2.27582C3.96644 2.16633 4.15804 2.07248 4.37702 1.99428C4.53343 1.93171 4.74068 1.86915 4.99876 1.80658C5.25684 1.74402 5.60486 1.70491 6.04281 1.68927C6.51205 1.65799 6.93436 1.64235 7.30975 1.64235C7.68514 1.64235 8.47503 1.64235 9.6794 1.64235ZM9.6794 1.66893e-05C8.45939 1.66893e-05 7.65386 0.003927 7.26283 0.0117476C6.8718 0.0195683 6.44167 0.0391198 5.97243 0.0704023C5.48755 0.0860436 5.07306 0.129057 4.72895 0.199443C4.38484 0.269828 4.0642 0.367586 3.76701 0.492716C3.48547 0.602205 3.21175 0.739066 2.94585 0.903299C2.67994 1.06753 2.42186 1.27478 2.1716 1.52504C1.92134 1.7753 1.71801 2.02947 1.5616 2.28755C1.40518 2.54563 1.26441 2.82326 1.13928 3.12045C1.02979 3.40199 0.939856 3.71481 0.86947 4.05892C0.799084 4.40303 0.74825 4.81752 0.716968 5.3024C0.701326 5.78728 0.689596 6.22132 0.681775 6.60453C0.673954 6.98775 0.670044 7.78936 0.670044 9.00938C0.670044 10.245 0.673954 11.0545 0.681775 11.4377C0.689596 11.8209 0.701326 12.2549 0.716968 12.7398C0.74825 13.2091 0.799084 13.6196 0.86947 13.9716C0.939856 14.3235 1.02979 14.6402 1.13928 14.9218C1.26441 15.219 1.40518 15.4966 1.5616 15.7547C1.71801 16.0127 1.92134 16.2669 2.1716 16.5172C2.42186 16.7674 2.67994 16.9747 2.94585 17.1389C3.21175 17.3032 3.48547 17.44 3.76701 17.5495C4.0642 17.659 4.38484 17.7528 4.72895 17.831C5.07306 17.9092 5.48755 17.9562 5.97243 17.9718C6.44167 17.9875 6.8718 17.9992 7.26283 18.007C7.65386 18.0148 8.45939 18.0187 9.6794 18.0187C10.8994 18.0187 11.7049 18.0148 12.096 18.007C12.487 17.9992 12.9171 17.9875 13.3864 17.9718C13.8713 17.9562 14.2858 17.9092 14.6299 17.831C14.974 17.7528 15.2946 17.659 15.5918 17.5495C15.8733 17.44 16.1471 17.3032 16.413 17.1389C16.6789 16.9747 16.9369 16.7674 17.1872 16.5172C17.4375 16.2669 17.6408 16.0127 17.7972 15.7547C17.9536 15.4966 18.0944 15.219 18.2195 14.9218C18.329 14.6402 18.419 14.3235 18.4893 13.9716C18.5597 13.6196 18.6106 13.2091 18.6418 12.7398C18.6575 12.2549 18.6692 11.8209 18.677 11.4377C18.6849 11.0545 18.6888 10.245 18.6888 9.00938C18.6888 7.78936 18.6849 6.98775 18.677 6.60453C18.6692 6.22132 18.6575 5.78728 18.6418 5.3024C18.6106 4.81752 18.5597 4.40303 18.4893 4.05892C18.419 3.71481 18.329 3.40199 18.2195 3.12045C18.0944 2.82326 17.9536 2.54563 17.7972 2.28755C17.6408 2.02947 17.4375 1.7753 17.1872 1.52504C16.9369 1.27478 16.6789 1.06753 16.413 0.903299C16.1471 0.739066 15.8733 0.602205 15.5918 0.492716C15.2946 0.367586 14.974 0.269828 14.6299 0.199443C14.2858 0.129057 13.8713 0.0860436 13.3864 0.0704023C12.9171 0.0391198 12.487 0.0195683 12.096 0.0117476C11.7049 0.003927 10.8994 1.66893e-05 9.6794 1.66893e-05ZM9.70287 4.41085C9.06158 4.41085 8.45939 4.52816 7.8963 4.76278C7.33322 5.01304 6.84052 5.34541 6.4182 5.75991C5.99589 6.1744 5.66742 6.66319 5.4328 7.22627C5.18254 7.78936 5.05741 8.39155 5.05741 9.03284C5.05741 9.67413 5.18254 10.2763 5.4328 10.8394C5.66742 11.4025 5.99589 11.8913 6.4182 12.3058C6.84052 12.7203 7.33322 13.0526 7.8963 13.3029C8.45939 13.5375 9.06158 13.6548 9.70287 13.6548C10.3442 13.6548 10.9463 13.5375 11.5094 13.3029C12.0725 13.0526 12.5613 12.7203 12.9758 12.3058C13.3903 11.8913 13.7227 11.4025 13.9729 10.8394C14.2075 10.2763 14.3249 9.67413 14.3249 9.03284C14.3249 8.39155 14.2075 7.78936 13.9729 7.22627C13.7227 6.66319 13.3903 6.1744 12.9758 5.75991C12.5613 5.34541 12.0725 5.01304 11.5094 4.76278C10.9463 4.52816 10.3442 4.41085 9.70287 4.41085ZM9.70287 12.036C8.87388 12.036 8.16611 11.7427 7.57957 11.1561C6.99302 10.5696 6.69975 9.86183 6.69975 9.03284C6.69975 8.20385 6.99302 7.49609 7.57957 6.90954C8.16611 6.32299 8.87388 6.02972 9.70287 6.02972C10.5319 6.02972 11.2396 6.32299 11.8262 6.90954C12.4127 7.49609 12.706 8.20385 12.706 9.03284C12.706 9.86183 12.4127 10.5696 11.8262 11.1561C11.2396 11.7427 10.5319 12.036 9.70287 12.036ZM15.5449 4.19969C15.5449 4.49688 15.4393 4.74714 15.2281 4.95047C15.017 5.15381 14.7628 5.25548 14.4656 5.25548C14.1684 5.25548 13.9143 5.15381 13.7031 4.95047C13.492 4.74714 13.3864 4.49688 13.3864 4.19969C13.3864 3.90251 13.492 3.64834 13.7031 3.43718C13.9143 3.22602 14.1684 3.12045 14.4656 3.12045C14.7628 3.12045 15.017 3.22602 15.2281 3.43718C15.4393 3.64834 15.5449 3.90251 15.5449 4.19969Z" fill="#006DFA"/>
</svg>
