<svg width="17" height="17" viewBox="0 0 17 17" fill="none" xmlns="http://www.w3.org/2000/svg">
<path d="M1.06883 16.4468H4.1658V5.60739H1.06883V16.4468ZM2.54693 4.27006H2.52347C1.96039 4.27006 1.5107 4.08628 1.17441 3.71871C0.838126 3.35114 0.669983 2.90927 0.669983 2.39311C0.669983 1.86131 0.842037 1.41554 1.18614 1.05579C1.53025 0.696038 1.99167 0.516163 2.57039 0.516163C3.13348 0.516163 3.58317 0.696038 3.91945 1.05579C4.25574 1.41554 4.42388 1.86131 4.42388 2.39311C4.42388 2.90927 4.25574 3.35114 3.91945 3.71871C3.58317 4.08628 3.12566 4.27006 2.54693 4.27006ZM16.6006 16.4468H13.0813V10.8394C13.0813 10.1043 12.9366 9.50988 12.6473 9.05629C12.3579 8.60269 11.9082 8.37589 11.2982 8.37589C10.8446 8.37589 10.4849 8.51666 10.219 8.79821C9.95307 9.07975 9.75755 9.37693 9.63242 9.68976C9.5855 9.81489 9.56203 9.95566 9.56203 10.1121C9.56203 10.2685 9.56203 10.4249 9.56203 10.5813V16.4468H6.06621C6.06621 16.4468 6.06621 15.9228 6.06621 14.8748C6.06621 13.8269 6.07012 12.6577 6.07795 11.3673C6.08577 10.0769 6.08968 8.85295 6.08968 7.6955C6.08968 6.53804 6.08186 5.84201 6.06621 5.60739H9.56203V7.32011C9.65588 6.94472 9.97262 6.54978 10.5122 6.13528C11.0519 5.72079 11.7675 5.51354 12.659 5.51354C13.7539 5.51354 14.6845 5.91239 15.451 6.7101C16.2174 7.5078 16.6006 8.74346 16.6006 10.4171V16.4468Z" fill="#006DFA"/>
</svg>
