<svg width="18" height="15" viewBox="0 0 18 15" fill="none" xmlns="http://www.w3.org/2000/svg">
<path d="M1.84707 6.4932C2.98888 5.99268 4.03685 5.53909 4.99096 5.13241C5.94508 4.72574 6.80144 4.35817 7.56004 4.02971C8.31864 3.70124 8.97948 3.41188 9.54257 3.16162C10.1213 2.91136 10.5984 2.70802 10.9737 2.55161C13.1479 1.64442 14.5947 1.06569 15.3142 0.81543C16.0337 0.56517 16.542 0.432219 16.8392 0.416578C16.9018 0.416578 16.9917 0.428309 17.109 0.451771C17.2263 0.475232 17.3319 0.526066 17.4258 0.604273C17.504 0.666838 17.5587 0.737223 17.59 0.81543C17.6213 0.893636 17.6447 0.964021 17.6604 1.02659C17.676 1.08915 17.6877 1.183 17.6956 1.30813C17.7034 1.43326 17.6995 1.54275 17.6838 1.6366C17.6213 2.26225 17.5196 3.06777 17.3788 4.05317C17.2381 5.05421 17.0817 6.09435 16.9096 7.1736C16.7375 8.25284 16.5577 9.30863 16.37 10.341C16.1979 11.3576 16.0415 12.2179 15.9007 12.9218C15.7912 13.5005 15.6387 13.9072 15.4432 14.1418C15.2477 14.3764 15.0483 14.5015 14.845 14.5172C14.3914 14.5641 13.973 14.4507 13.5897 14.177C13.2065 13.9032 12.7959 13.6256 12.358 13.3441C11.6698 12.8905 11.0832 12.4955 10.5984 12.1592C10.1135 11.823 9.53475 11.4358 8.86217 10.9979C8.08011 10.4817 7.82985 10.0516 8.11139 9.70748C8.39293 9.36337 8.75268 8.9567 9.19064 8.48746C9.2532 8.44054 9.51128 8.20592 9.96488 7.78361C10.4028 7.36129 10.8838 6.9077 11.4078 6.42282C11.9318 5.93794 12.4049 5.47652 12.8272 5.03857C13.2652 4.61625 13.492 4.36599 13.5076 4.28779C13.5233 4.2565 13.5272 4.20958 13.5194 4.14702C13.5115 4.08445 13.4842 4.03753 13.4372 4.00624C13.3903 3.95932 13.3356 3.93977 13.273 3.94759C13.2104 3.95541 13.1557 3.95932 13.1088 3.95932C13.0775 3.97496 12.9133 4.07663 12.6161 4.26433C12.3345 4.45202 11.9161 4.72574 11.3609 5.08549C10.8056 5.44524 10.1291 5.89884 9.33141 6.44628C8.51806 6.99372 7.57959 7.62719 6.51598 8.34669C6.20316 8.55003 5.90206 8.70644 5.6127 8.81593C5.32334 8.92542 5.05353 8.97234 4.80327 8.9567C4.52172 8.9567 4.14633 8.89414 3.6771 8.76901C3.20786 8.64388 2.7699 8.51875 2.36323 8.39362C1.87835 8.2372 1.46777 8.09252 1.13148 7.95957C0.795196 7.82662 0.642694 7.62719 0.673976 7.36129C0.689618 7.22052 0.795196 7.07975 0.990712 6.93898C1.18623 6.79821 1.47168 6.64962 1.84707 6.4932Z" fill="#006DFA"/>
</svg>
