<svg width="20" height="17" viewBox="0 0 20 17" fill="none" xmlns="http://www.w3.org/2000/svg">
<path d="M19.9087 7.83628C19.9087 7.25755 19.6976 6.76094 19.2753 6.34645C18.8529 5.93196 18.3524 5.72471 17.7737 5.72471C17.4921 5.72471 17.2223 5.77946 16.9643 5.88894C16.7062 5.99843 16.4833 6.1392 16.2956 6.31126C15.5761 5.84202 14.7393 5.46272 13.7852 5.17336C12.8311 4.88399 11.8066 4.71585 10.7117 4.66893L11.9082 0.938489L15.1225 1.68927V1.73619C15.1225 2.22107 15.2906 2.63165 15.6269 2.96794C15.9632 3.30423 16.3738 3.47237 16.8587 3.47237C17.3436 3.47237 17.7541 3.30423 18.0904 2.96794C18.4267 2.63165 18.5949 2.22107 18.5949 1.73619C18.5949 1.26695 18.4267 0.860282 18.0904 0.516175C17.7541 0.172067 17.3436 1.34911e-05 16.8587 1.34911e-05C16.4833 1.34911e-05 16.1509 0.105592 15.8615 0.316749C15.5722 0.527906 15.3649 0.789897 15.2398 1.10272L11.7675 0.305018C11.6892 0.289377 11.6189 0.297197 11.5563 0.32848C11.4937 0.359762 11.4468 0.414507 11.4155 0.492713L10.1017 4.66893C8.95985 4.68457 7.88842 4.83707 6.88738 5.12643C5.88634 5.4158 5.00261 5.80292 4.23619 6.2878C4.04849 6.11574 3.83343 5.97888 3.59099 5.87721C3.34855 5.77555 3.08656 5.72471 2.80501 5.72471C2.22629 5.72471 1.72577 5.93196 1.30345 6.34645C0.88114 6.76094 0.669983 7.25755 0.669983 7.83628C0.669983 8.22731 0.767741 8.58315 0.963256 8.9038C1.15877 9.22444 1.41294 9.47861 1.72577 9.66631C1.71013 9.7758 1.69448 9.88528 1.67884 9.99477C1.6632 10.1043 1.65538 10.2216 1.65538 10.3467C1.65538 11.1288 1.88218 11.8639 2.33578 12.5521C2.78937 13.2403 3.40329 13.8425 4.17753 14.3587C4.95178 14.8748 5.86288 15.2815 6.91084 15.5787C7.95881 15.8759 9.06933 16.0245 10.2424 16.0245C11.4312 16.0245 12.5495 15.8759 13.5975 15.5787C14.6298 15.2815 15.537 14.8748 16.3191 14.3587C17.1011 13.8425 17.7111 13.2403 18.1491 12.5521C18.6027 11.8639 18.8295 11.1288 18.8295 10.3467C18.8295 10.2372 18.8256 10.1277 18.8177 10.0182C18.8099 9.90875 18.7982 9.79926 18.7826 9.68977C19.111 9.51771 19.3808 9.26745 19.592 8.93899C19.8031 8.61052 19.9087 8.24295 19.9087 7.83628ZM6.11314 9.29092C6.11314 8.94681 6.23436 8.64963 6.4768 8.39937C6.71924 8.14911 7.02033 8.02398 7.38008 8.02398C7.72419 8.02398 8.02137 8.14911 8.27163 8.39937C8.52189 8.64963 8.64702 8.94681 8.64702 9.29092C8.64702 9.63502 8.52189 9.93221 8.27163 10.1825C8.02137 10.4327 7.72419 10.5579 7.38008 10.5579C7.02033 10.5579 6.71924 10.4327 6.4768 10.1825C6.23436 9.93221 6.11314 9.63502 6.11314 9.29092ZM13.3629 13.0214C13.05 13.3498 12.6395 13.5923 12.1311 13.7487C11.6228 13.9051 11.0088 13.9833 10.2894 13.9833C9.56985 13.9833 8.95594 13.9051 8.44759 13.7487C7.93925 13.5923 7.52867 13.3498 7.21585 13.0214C7.15328 12.9744 7.122 12.908 7.122 12.8219C7.122 12.7359 7.15328 12.6694 7.21585 12.6225C7.27841 12.5599 7.3488 12.5287 7.427 12.5287C7.50521 12.5287 7.5756 12.5599 7.63816 12.6225C7.90406 12.8728 8.25208 13.0605 8.68221 13.1856C9.11235 13.3107 9.64806 13.3733 10.2894 13.3733C10.9306 13.3733 11.4664 13.3107 11.8965 13.1856C12.3266 13.0605 12.6746 12.8728 12.9405 12.6225C13.0031 12.5599 13.0735 12.5287 13.1517 12.5287C13.2299 12.5287 13.3003 12.5599 13.3629 12.6225C13.4254 12.6694 13.4567 12.7359 13.4567 12.8219C13.4567 12.908 13.4254 12.9744 13.3629 13.0214ZM13.2221 10.5579C12.8623 10.5579 12.5612 10.4327 12.3188 10.1825C12.0764 9.93221 11.9551 9.63502 11.9551 9.29092C11.9551 8.94681 12.0764 8.64963 12.3188 8.39937C12.5612 8.14911 12.8623 8.02398 13.2221 8.02398C13.5662 8.02398 13.8595 8.14911 14.1019 8.39937C14.3443 8.64963 14.4656 8.94681 14.4656 9.29092C14.4656 9.63502 14.3443 9.93221 14.1019 10.1825C13.8595 10.4327 13.5662 10.5579 13.2221 10.5579Z" fill="#006DFA"/>
</svg>
