<svg width="18" height="16" viewBox="0 0 18 16" fill="none" xmlns="http://www.w3.org/2000/svg">
<path d="M15.6856 3.17622C16.0453 2.9416 16.3582 2.64832 16.6241 2.2964C16.89 1.94447 17.0855 1.55735 17.2106 1.13503C16.8665 1.33837 16.5107 1.51824 16.1431 1.67466C15.7755 1.83107 15.3884 1.94838 14.9817 2.02658C14.6689 1.66684 14.2935 1.38138 13.8556 1.17023C13.4176 0.959069 12.9484 0.85349 12.4478 0.85349C11.4781 0.85349 10.653 1.21324 9.97262 1.93274C9.29222 2.65223 8.95203 3.52032 8.95203 4.537C8.95203 4.67778 8.95985 4.81855 8.97549 4.95932C8.99113 5.10009 9.01459 5.24086 9.04587 5.38163C8.32638 5.35035 7.62252 5.23304 6.9343 5.0297C6.26173 4.82637 5.62044 4.56047 5.01043 4.232C4.40042 3.90353 3.82952 3.5125 3.29771 3.05891C2.76591 2.60531 2.28103 2.09697 1.84308 1.53388C1.70231 1.79979 1.58891 2.08915 1.50288 2.40197C1.41685 2.7148 1.37384 3.04327 1.37384 3.38737C1.37384 4.02866 1.51461 4.61521 1.79615 5.14701C2.0777 5.67882 2.45309 6.11677 2.92232 6.46088C2.64078 6.44524 2.36706 6.39831 2.10116 6.32011C1.83526 6.2419 1.585 6.13241 1.35038 5.99164V6.03856C1.35038 6.93012 1.61628 7.71218 2.14808 8.38475C2.67988 9.05733 3.34464 9.47964 4.14234 9.65169C4.00157 9.69862 3.85298 9.7299 3.69656 9.74554C3.54015 9.76118 3.38374 9.769 3.22733 9.769C3.11784 9.769 3.00835 9.76509 2.89886 9.75727C2.78937 9.74945 2.67988 9.73772 2.57039 9.72208C2.78937 10.4416 3.19604 11.0438 3.79041 11.5286C4.38478 12.0135 5.06517 12.2638 5.8316 12.2794C5.23723 12.7643 4.56856 13.1475 3.82561 13.4291C3.08265 13.7106 2.30449 13.8514 1.49115 13.8514C1.35038 13.8514 1.20961 13.8475 1.06883 13.8396C0.928064 13.8318 0.795113 13.8201 0.669983 13.8044C1.4364 14.3206 2.27321 14.7234 3.1804 15.0127C4.0876 15.3021 5.03389 15.4468 6.01929 15.4468C7.6147 15.4468 9.03023 15.1261 10.2659 14.4848C11.5015 13.8592 12.5417 13.0419 13.3863 12.0331C14.2309 11.0242 14.8644 9.90195 15.2867 8.6663C15.7247 7.415 15.9437 6.17934 15.9437 4.95932C15.9437 4.88111 15.9437 4.80291 15.9437 4.7247C15.9437 4.64649 15.9437 4.56829 15.9437 4.49008C16.2878 4.23982 16.6045 3.95437 16.8939 3.63372C17.1832 3.31308 17.4452 2.96506 17.6798 2.58967C17.367 2.73044 17.0425 2.85166 16.7062 2.95333C16.3699 3.055 16.0297 3.12929 15.6856 3.17622Z" fill="#006DFA"/>
</svg>
