<svg width="21" height="15" viewBox="0 0 21 15" fill="none" xmlns="http://www.w3.org/2000/svg">
<path d="M20.2841 2.69237C20.2215 2.48903 20.1355 2.2896 20.026 2.09409C19.9165 1.89857 19.7836 1.72261 19.6272 1.5662C19.4708 1.42542 19.2987 1.29638 19.111 1.17907C18.9233 1.06176 18.72 0.979648 18.501 0.932724C18.11 0.823236 17.4843 0.745029 16.6241 0.698106C15.7638 0.635541 14.8918 0.592527 14.0081 0.569065C13.1243 0.545603 12.354 0.526052 11.6971 0.510411C11.0245 0.510411 10.6882 0.510411 10.6882 0.510411C10.6882 0.510411 10.3519 0.510411 9.67934 0.510411C9.02241 0.526052 8.25208 0.545603 7.36835 0.569065C6.48462 0.592527 5.61262 0.635541 4.75235 0.698106C3.89208 0.745029 3.26643 0.823236 2.8754 0.932724C2.65642 0.979648 2.45309 1.06176 2.26539 1.17907C2.0777 1.29638 1.90564 1.42542 1.74923 1.5662C1.59282 1.72261 1.45987 1.89857 1.35038 2.09409C1.24089 2.2896 1.15486 2.48903 1.0923 2.69237C0.88896 3.47443 0.767741 4.47547 0.728638 5.69549C0.689534 6.9155 0.669983 7.52551 0.669983 7.52551C0.669983 7.52551 0.689534 8.13161 0.728638 9.34381C0.767741 10.556 0.88896 11.5531 1.0923 12.3352C1.15486 12.5542 1.24089 12.7575 1.35038 12.9452C1.45987 13.1329 1.59282 13.305 1.74923 13.4614C1.90564 13.6178 2.0777 13.7507 2.26539 13.8602C2.45309 13.9697 2.65642 14.0557 2.8754 14.1183C3.26643 14.2121 3.89208 14.2904 4.75235 14.3529C5.61262 14.3998 6.48462 14.4389 7.36835 14.4702C8.25208 14.5015 9.02241 14.5172 9.67934 14.5172C10.3519 14.5172 10.6882 14.5172 10.6882 14.5172C10.6882 14.5172 11.0245 14.5172 11.6971 14.5172C12.354 14.5172 13.1243 14.5015 14.0081 14.4702C14.8918 14.4389 15.7638 14.3998 16.6241 14.3529C17.4843 14.2904 18.11 14.2121 18.501 14.1183C18.72 14.0557 18.9233 13.9697 19.111 13.8602C19.2987 13.7507 19.4708 13.6178 19.6272 13.4614C19.7836 13.305 19.9165 13.1329 20.026 12.9452C20.1355 12.7575 20.2215 12.5542 20.2841 12.3352C20.4874 11.5531 20.6087 10.556 20.6478 9.34381C20.6869 8.13161 20.7064 7.52551 20.7064 7.52551C20.7064 7.52551 20.6869 6.9155 20.6478 5.69549C20.6087 4.47547 20.4874 3.47443 20.2841 2.69237ZM8.69394 10.5286V4.52239L13.879 7.52551L8.69394 10.5286Z" fill="#006DFA"/>
</svg>
