<svg width="19" height="14" viewBox="0 0 19 14" fill="none" xmlns="http://www.w3.org/2000/svg">
<path d="M15.9231 1.14389C15.3444 0.877991 14.75 0.651193 14.14 0.463498C13.53 0.275803 12.9044 0.127211 12.2631 0.0177222C12.2474 0.0177222 12.2357 0.0177222 12.2279 0.0177222C12.2201 0.0177222 12.2083 0.0255428 12.1927 0.0411841C12.1145 0.181955 12.0363 0.338368 11.9581 0.510422C11.8799 0.682475 11.8095 0.838888 11.7469 0.979659C11.0587 0.87017 10.3705 0.815426 9.68228 0.815426C8.99406 0.815426 8.30585 0.87017 7.61763 0.979659C7.55507 0.823247 7.48468 0.662924 7.40647 0.498691C7.32827 0.334458 7.24224 0.181955 7.14839 0.0411841C7.14839 0.0255428 7.14448 0.0177222 7.13666 0.0177222C7.12884 0.0177222 7.11711 0.0177222 7.10147 0.0177222C6.46018 0.127211 5.83062 0.275803 5.21279 0.463498C4.59496 0.651193 4.0045 0.877991 3.44142 1.14389C3.42578 1.14389 3.41796 1.1478 3.41796 1.15562C3.41796 1.16344 3.41796 1.16735 3.41796 1.16735C2.82359 2.04326 2.33871 2.91135 1.96332 3.77162C1.58793 4.63189 1.29466 5.48825 1.0835 6.3407C0.872342 7.19315 0.743301 8.04168 0.696378 8.88631C0.649454 9.73094 0.665095 10.5756 0.743301 11.4202C0.743301 11.4358 0.747212 11.4476 0.755032 11.4554C0.762853 11.4632 0.766763 11.4671 0.766763 11.4671C1.53318 12.0302 2.29179 12.4916 3.04257 12.8514C3.79335 13.2111 4.5363 13.5083 5.27144 13.7429C5.28708 13.7429 5.29882 13.7429 5.30664 13.7429C5.31446 13.7429 5.32619 13.7351 5.34183 13.7195C5.51388 13.4848 5.67421 13.2424 5.8228 12.9921C5.97139 12.7419 6.11607 12.4838 6.25684 12.2179C6.25684 12.2023 6.25684 12.1866 6.25684 12.171C6.25684 12.1553 6.24902 12.1475 6.23338 12.1475C5.98312 12.0537 5.74068 11.952 5.50606 11.8425C5.27144 11.733 5.04465 11.6079 4.82567 11.4671C4.79439 11.4671 4.77874 11.4554 4.77874 11.4319C4.77874 11.4085 4.78656 11.3889 4.80221 11.3733C4.84913 11.342 4.89605 11.3068 4.94298 11.2677C4.9899 11.2286 5.03682 11.1934 5.08375 11.1621C5.09939 11.1465 5.11112 11.1387 5.11894 11.1387C5.12676 11.1387 5.13849 11.1465 5.15413 11.1621C5.88927 11.4906 6.64005 11.7408 7.40647 11.9129C8.15725 12.0849 8.91585 12.171 9.68228 12.171C10.4487 12.171 11.2151 12.0849 11.9815 11.9129C12.7323 11.7408 13.4753 11.4906 14.2104 11.1621C14.2104 11.1465 14.2182 11.1387 14.2339 11.1387C14.2495 11.1387 14.2573 11.1465 14.2573 11.1621C14.3043 11.1934 14.3512 11.2286 14.3981 11.2677C14.445 11.3068 14.492 11.342 14.5389 11.3733C14.5545 11.3889 14.5623 11.4085 14.5623 11.4319C14.5623 11.4554 14.5545 11.4671 14.5389 11.4671C14.3199 11.6079 14.0931 11.733 13.8585 11.8425C13.6239 11.952 13.3814 12.0537 13.1312 12.1475C13.1155 12.1475 13.1038 12.1553 13.096 12.171C13.0882 12.1866 13.0921 12.2023 13.1077 12.2179C13.2328 12.4838 13.3736 12.7419 13.53 12.9921C13.6864 13.2424 13.8507 13.4848 14.0227 13.7195C14.0227 13.7351 14.0305 13.7429 14.0462 13.7429C14.0618 13.7429 14.0775 13.7429 14.0931 13.7429C14.8282 13.5083 15.5673 13.2111 16.3103 12.8514C17.0532 12.4916 17.8157 12.0302 18.5978 11.4671C18.5978 11.4671 18.6017 11.4632 18.6095 11.4554C18.6173 11.4476 18.6213 11.4358 18.6213 11.4202C18.7151 10.4504 18.7229 9.51196 18.6447 8.60477C18.5665 7.69758 18.414 6.81776 18.1872 5.96531C17.9604 5.11286 17.6593 4.28778 17.2839 3.49008C16.9085 2.69238 16.4628 1.91813 15.9466 1.16735C15.9466 1.16735 15.9427 1.16344 15.9349 1.15562C15.927 1.1478 15.9231 1.14389 15.9231 1.14389ZM6.70262 9.37901C6.24902 9.37901 5.86581 9.20305 5.55299 8.85112C5.24016 8.49919 5.08375 8.07297 5.08375 7.57245C5.08375 7.07193 5.24016 6.64179 5.55299 6.28204C5.86581 5.92229 6.24902 5.74242 6.70262 5.74242C7.15621 5.74242 7.53942 5.92229 7.85225 6.28204C8.16507 6.64179 8.32149 7.07193 8.32149 7.57245C8.32149 8.07297 8.16116 8.49919 7.84052 8.85112C7.51987 9.20305 7.14057 9.37901 6.70262 9.37901ZM12.6854 9.37901C12.2318 9.37901 11.8486 9.20305 11.5358 8.85112C11.2229 8.49919 11.0665 8.07297 11.0665 7.57245C11.0665 7.07193 11.2229 6.64179 11.5358 6.28204C11.8486 5.92229 12.2318 5.74242 12.6854 5.74242C13.139 5.74242 13.5222 5.92229 13.835 6.28204C14.1479 6.64179 14.3043 7.07193 14.3043 7.57245C14.3043 8.07297 14.1479 8.49919 13.835 8.85112C13.5222 9.20305 13.139 9.37901 12.6854 9.37901Z" fill="#006DFA"/>
</svg>
