<svg width="20" height="20" viewBox="0 0 20 20" fill="none" xmlns="http://www.w3.org/2000/svg">
<path d="M13.8408 0.833328H6.15917C2.8225 0.833328 0.833332 2.82249 0.833332 6.15916V13.8317C0.833332 17.1775 2.8225 19.1667 6.15917 19.1667H13.8317C17.1683 19.1667 19.1575 17.1775 19.1575 13.8408V6.15916C19.1667 2.82249 17.1775 0.833328 13.8408 0.833328ZM10 13.5567C8.03833 13.5567 6.44333 11.9617 6.44333 10C6.44333 8.03833 8.03833 6.44333 10 6.44333C11.9617 6.44333 13.5567 8.03833 13.5567 10C13.5567 11.9617 11.9617 13.5567 10 13.5567ZM15.4267 5.30666C15.3808 5.41666 15.3167 5.5175 15.2342 5.60916C15.1425 5.69166 15.0417 5.75583 14.9317 5.80166C14.7648 5.87247 14.5807 5.89198 14.4027 5.8577C14.2248 5.82341 14.0611 5.73689 13.9325 5.60916C13.85 5.5175 13.7858 5.41666 13.74 5.30666C13.6929 5.19649 13.668 5.07813 13.6667 4.95833C13.6667 4.83916 13.6942 4.71999 13.74 4.60999C13.7858 4.49083 13.85 4.39916 13.9325 4.30749C14.1433 4.09666 14.4642 3.99583 14.7575 4.05999C14.8217 4.06916 14.8767 4.08749 14.9317 4.115C14.9867 4.13333 15.0417 4.16083 15.0967 4.19749C15.1425 4.225 15.1883 4.27083 15.2342 4.30749C15.3167 4.39916 15.3808 4.49083 15.4267 4.60999C15.4725 4.71999 15.5 4.83916 15.5 4.95833C15.5 5.0775 15.4725 5.19666 15.4267 5.30666Z" fill="#040305"/>
</svg>
