<svg width="19" height="14" viewBox="0 0 19 14" fill="none" xmlns="http://www.w3.org/2000/svg">
<path d="M15.9231 1.12723C15.3444 0.861328 14.75 0.63453 14.14 0.446836C13.53 0.25914 12.9044 0.110548 12.2631 0.00105953C12.2474 0.00105953 12.2357 0.00105953 12.2279 0.00105953C12.2201 0.00105953 12.2083 0.00888062 12.1927 0.0245218C12.1145 0.165293 12.0363 0.321705 11.9581 0.493759C11.8799 0.665812 11.8095 0.822226 11.7469 0.962996C11.0587 0.853508 10.3705 0.798763 9.68228 0.798763C8.99406 0.798763 8.30585 0.853508 7.61763 0.962996C7.55507 0.806584 7.48468 0.646261 7.40647 0.482028C7.32827 0.317795 7.24224 0.165293 7.14839 0.0245218C7.14839 0.00888062 7.14448 0.00105953 7.13666 0.00105953C7.12884 0.00105953 7.11711 0.00105953 7.10147 0.00105953C6.46018 0.110548 5.83062 0.25914 5.21279 0.446836C4.59496 0.63453 4.0045 0.861328 3.44142 1.12723C3.42578 1.12723 3.41796 1.13114 3.41796 1.13896C3.41796 1.14678 3.41796 1.15069 3.41796 1.15069C2.82359 2.0266 2.33871 2.89469 1.96332 3.75496C1.58793 4.61523 1.29466 5.47159 1.0835 6.32404C0.872342 7.17648 0.743301 8.02502 0.696378 8.86965C0.649454 9.71428 0.665095 10.5589 0.743301 11.4035C0.743301 11.4192 0.747212 11.4309 0.755032 11.4387C0.762853 11.4465 0.766763 11.4505 0.766763 11.4505C1.53318 12.0135 2.29179 12.475 3.04257 12.8347C3.79335 13.1945 4.5363 13.4916 5.27144 13.7263C5.28708 13.7263 5.29882 13.7263 5.30664 13.7263C5.31446 13.7263 5.32619 13.7184 5.34183 13.7028C5.51388 13.4682 5.67421 13.2257 5.8228 12.9755C5.97139 12.7252 6.11607 12.4671 6.25684 12.2012C6.25684 12.1856 6.25684 12.17 6.25684 12.1543C6.25684 12.1387 6.24902 12.1308 6.23338 12.1308C5.98312 12.037 5.74068 11.9353 5.50606 11.8258C5.27144 11.7164 5.04465 11.5912 4.82567 11.4505C4.79439 11.4505 4.77874 11.4387 4.77874 11.4153C4.77874 11.3918 4.78656 11.3722 4.80221 11.3566C4.84913 11.3253 4.89605 11.2901 4.94298 11.251C4.9899 11.2119 5.03682 11.1767 5.08375 11.1455C5.09939 11.1298 5.11112 11.122 5.11894 11.122C5.12676 11.122 5.13849 11.1298 5.15413 11.1455C5.88927 11.4739 6.64005 11.7242 7.40647 11.8962C8.15725 12.0683 8.91585 12.1543 9.68228 12.1543C10.4487 12.1543 11.2151 12.0683 11.9815 11.8962C12.7323 11.7242 13.4753 11.4739 14.2104 11.1455C14.2104 11.1298 14.2182 11.122 14.2339 11.122C14.2495 11.122 14.2573 11.1298 14.2573 11.1455C14.3043 11.1767 14.3512 11.2119 14.3981 11.251C14.445 11.2901 14.492 11.3253 14.5389 11.3566C14.5545 11.3722 14.5623 11.3918 14.5623 11.4153C14.5623 11.4387 14.5545 11.4505 14.5389 11.4505C14.3199 11.5912 14.0931 11.7164 13.8585 11.8258C13.6239 11.9353 13.3814 12.037 13.1312 12.1308C13.1155 12.1308 13.1038 12.1387 13.096 12.1543C13.0882 12.17 13.0921 12.1856 13.1077 12.2012C13.2328 12.4671 13.3736 12.7252 13.53 12.9755C13.6864 13.2257 13.8507 13.4682 14.0227 13.7028C14.0227 13.7184 14.0305 13.7263 14.0462 13.7263C14.0618 13.7263 14.0775 13.7263 14.0931 13.7263C14.8282 13.4916 15.5673 13.1945 16.3103 12.8347C17.0532 12.475 17.8157 12.0135 18.5978 11.4505C18.5978 11.4505 18.6017 11.4465 18.6095 11.4387C18.6173 11.4309 18.6213 11.4192 18.6213 11.4035C18.7151 10.4338 18.7229 9.4953 18.6447 8.58811C18.5665 7.68091 18.414 6.80109 18.1872 5.94865C17.9604 5.0962 17.6593 4.27112 17.2839 3.47342C16.9085 2.67571 16.4628 1.90147 15.9466 1.15069C15.9466 1.15069 15.9427 1.14678 15.9349 1.13896C15.927 1.13114 15.9231 1.12723 15.9231 1.12723ZM6.70262 9.36235C6.24902 9.36235 5.86581 9.18638 5.55299 8.83446C5.24016 8.48253 5.08375 8.0563 5.08375 7.55578C5.08375 7.05526 5.24016 6.62513 5.55299 6.26538C5.86581 5.90563 6.24902 5.72576 6.70262 5.72576C7.15621 5.72576 7.53942 5.90563 7.85225 6.26538C8.16507 6.62513 8.32149 7.05526 8.32149 7.55578C8.32149 8.0563 8.16116 8.48253 7.84052 8.83446C7.51987 9.18638 7.14057 9.36235 6.70262 9.36235ZM12.6854 9.36235C12.2318 9.36235 11.8486 9.18638 11.5358 8.83446C11.2229 8.48253 11.0665 8.0563 11.0665 7.55578C11.0665 7.05526 11.2229 6.62513 11.5358 6.26538C11.8486 5.90563 12.2318 5.72576 12.6854 5.72576C13.139 5.72576 13.5222 5.90563 13.835 6.26538C14.1479 6.62513 14.3043 7.05526 14.3043 7.55578C14.3043 8.0563 14.1479 8.48253 13.835 8.83446C13.5222 9.18638 13.139 9.36235 12.6854 9.36235Z" fill="white"/>
</svg>
