<svg width="19" height="18" viewBox="0 0 19 18" fill="none" xmlns="http://www.w3.org/2000/svg">
<path d="M8.82505 0.176912C4.60838 0.635245 1.21672 4.02691 0.758382 8.15191C0.300049 12.4602 2.77505 16.3102 6.53338 17.7769C6.80838 17.8686 7.08338 17.6852 7.08338 17.3186V15.8519C7.08338 15.8519 6.71672 15.9436 6.25838 15.9436C4.97505 15.9436 4.42505 14.8436 4.33338 14.2019C4.24172 13.8352 4.05838 13.5602 3.78338 13.2852C3.50838 13.1936 3.41672 13.1936 3.41672 13.1019C3.41672 12.9186 3.69172 12.9186 3.78338 12.9186C4.33338 12.9186 4.79172 13.5602 4.97505 13.8352C5.43338 14.5686 5.98338 14.7519 6.25838 14.7519C6.62505 14.7519 6.90005 14.6602 7.08338 14.5686C7.17505 13.9269 7.45005 13.2852 8.00005 12.9186C5.89172 12.4602 4.33338 11.2686 4.33338 9.25191C4.33338 8.24358 4.79172 7.23525 5.43338 6.50191C5.34172 6.31858 5.25005 5.86025 5.25005 5.21858C5.25005 4.85191 5.25005 4.30191 5.52505 3.75191C5.52505 3.75191 6.80838 3.75191 8.09172 4.94358C8.55005 4.76025 9.19172 4.66858 9.83338 4.66858C10.475 4.66858 11.1167 4.76025 11.6667 4.94358C12.8584 3.75191 14.2334 3.75191 14.2334 3.75191C14.4167 4.30191 14.4167 4.85191 14.4167 5.21858C14.4167 5.95191 14.325 6.31858 14.2334 6.50191C14.875 7.23525 15.3334 8.15191 15.3334 9.25191C15.3334 11.2686 13.775 12.4602 11.6667 12.9186C12.2167 13.3769 12.5834 14.2019 12.5834 15.0269V17.4102C12.5834 17.6852 12.8584 17.9602 13.225 17.8686C16.6167 16.4936 19 13.1936 19 9.34358C19 3.84358 14.325 -0.464755 8.82505 0.176912Z" fill="white"/>
</svg>
