<svg width="19" height="20" viewBox="0 0 19 20" fill="none" xmlns="http://www.w3.org/2000/svg">
<path d="M9.6794 2.62568C10.8838 2.62568 11.6737 2.62568 12.0491 2.62568C12.4244 2.62568 12.8468 2.64133 13.316 2.67261C13.754 2.68825 14.102 2.72735 14.36 2.78992C14.6181 2.85248 14.8254 2.91505 14.9818 2.97761C15.2008 3.05582 15.3924 3.14967 15.5566 3.25916C15.7208 3.36864 15.8812 3.5016 16.0376 3.65801C16.194 3.81442 16.323 3.97083 16.4247 4.12725C16.5264 4.28366 16.6163 4.47135 16.6945 4.69033C16.7571 4.84674 16.8196 5.05399 16.8822 5.31207C16.9448 5.57015 16.9917 5.91817 17.023 6.35612C17.0386 6.841 17.0503 7.26723 17.0582 7.6348C17.066 8.00237 17.0699 8.78834 17.0699 9.99271C17.0699 11.1971 17.066 11.987 17.0582 12.3624C17.0503 12.7378 17.0386 13.1601 17.023 13.6293C16.9917 14.0829 16.9448 14.4387 16.8822 14.6968C16.8196 14.9549 16.7571 15.1621 16.6945 15.3186C16.6163 15.5219 16.5264 15.7057 16.4247 15.8699C16.323 16.0341 16.194 16.1945 16.0376 16.3509C15.8812 16.5073 15.7208 16.6363 15.5566 16.738C15.3924 16.8397 15.2008 16.9374 14.9818 17.0313C14.8254 17.0938 14.6181 17.1564 14.36 17.219C14.102 17.2815 13.754 17.3206 13.316 17.3363C12.8468 17.3519 12.4244 17.3637 12.0491 17.3715C11.6737 17.3793 10.8838 17.3832 9.6794 17.3832C8.47503 17.3832 7.68514 17.3793 7.30975 17.3715C6.93436 17.3637 6.51205 17.3519 6.04281 17.3363C5.60486 17.3206 5.25684 17.2815 4.99876 17.219C4.74068 17.1564 4.53343 17.0938 4.37702 17.0313C4.15804 16.9374 3.96644 16.8397 3.8022 16.738C3.63797 16.6363 3.47765 16.5073 3.32124 16.3509C3.16482 16.1945 3.03578 16.0341 2.93411 15.8699C2.83245 15.7057 2.74251 15.5219 2.6643 15.3186C2.60174 15.1621 2.53917 14.9549 2.47661 14.6968C2.41404 14.4387 2.36712 14.0829 2.33584 13.6293C2.3202 13.1601 2.30847 12.7378 2.30064 12.3624C2.29282 11.987 2.28891 11.1971 2.28891 9.99271C2.28891 8.78834 2.29282 8.00237 2.30064 7.6348C2.30847 7.26723 2.3202 6.841 2.33584 6.35612C2.36712 5.91817 2.41404 5.57015 2.47661 5.31207C2.53917 5.05399 2.60174 4.84674 2.6643 4.69033C2.74251 4.47135 2.83245 4.28366 2.93411 4.12725C3.03578 3.97083 3.16482 3.81442 3.32124 3.65801C3.47765 3.5016 3.63797 3.36864 3.8022 3.25916C3.96644 3.14967 4.15804 3.05582 4.37702 2.97761C4.53343 2.91505 4.74068 2.85248 4.99876 2.78992C5.25684 2.72735 5.60486 2.68825 6.04281 2.67261C6.51205 2.64133 6.93436 2.62568 7.30975 2.62568C7.68514 2.62568 8.47503 2.62568 9.6794 2.62568ZM9.6794 0.983355C8.45939 0.983355 7.65386 0.987265 7.26283 0.995085C6.8718 1.0029 6.44167 1.02246 5.97243 1.05374C5.48755 1.06938 5.07306 1.11239 4.72895 1.18278C4.38484 1.25317 4.0642 1.35092 3.76701 1.47605C3.48547 1.58554 3.21175 1.7224 2.94585 1.88664C2.67994 2.05087 2.42186 2.25812 2.1716 2.50838C1.92134 2.75864 1.71801 3.01281 1.5616 3.27089C1.40518 3.52897 1.26441 3.8066 1.13928 4.10378C1.02979 4.38533 0.939856 4.69815 0.86947 5.04226C0.799084 5.38637 0.74825 5.80086 0.716968 6.28574C0.701326 6.77062 0.689596 7.20466 0.681775 7.58787C0.673954 7.97108 0.670044 8.7727 0.670044 9.99271C0.670044 11.2284 0.673954 12.0378 0.681775 12.421C0.689596 12.8042 0.701326 13.2383 0.716968 13.7232C0.74825 14.1924 0.799084 14.603 0.86947 14.9549C0.939856 15.3068 1.02979 15.6236 1.13928 15.9051C1.26441 16.2023 1.40518 16.4799 1.5616 16.738C1.71801 16.9961 1.92134 17.2503 2.1716 17.5005C2.42186 17.7508 2.67994 17.958 2.94585 18.1223C3.21175 18.2865 3.48547 18.4233 3.76701 18.5328C4.0642 18.6423 4.38484 18.7362 4.72895 18.8144C5.07306 18.8926 5.48755 18.9395 5.97243 18.9552C6.44167 18.9708 6.8718 18.9825 7.26283 18.9903C7.65386 18.9982 8.45939 19.0021 9.6794 19.0021C10.8994 19.0021 11.7049 18.9982 12.096 18.9903C12.487 18.9825 12.9171 18.9708 13.3864 18.9552C13.8713 18.9395 14.2858 18.8926 14.6299 18.8144C14.974 18.7362 15.2946 18.6423 15.5918 18.5328C15.8733 18.4233 16.1471 18.2865 16.413 18.1223C16.6789 17.958 16.9369 17.7508 17.1872 17.5005C17.4375 17.2503 17.6408 16.9961 17.7972 16.738C17.9536 16.4799 18.0944 16.2023 18.2195 15.9051C18.329 15.6236 18.419 15.3068 18.4893 14.9549C18.5597 14.603 18.6106 14.1924 18.6418 13.7232C18.6575 13.2383 18.6692 12.8042 18.677 12.421C18.6849 12.0378 18.6888 11.2284 18.6888 9.99271C18.6888 8.7727 18.6849 7.97108 18.677 7.58787C18.6692 7.20466 18.6575 6.77062 18.6418 6.28574C18.6106 5.80086 18.5597 5.38637 18.4893 5.04226C18.419 4.69815 18.329 4.38533 18.2195 4.10378C18.0944 3.8066 17.9536 3.52897 17.7972 3.27089C17.6408 3.01281 17.4375 2.75864 17.1872 2.50838C16.9369 2.25812 16.6789 2.05087 16.413 1.88664C16.1471 1.7224 15.8733 1.58554 15.5918 1.47605C15.2946 1.35092 14.974 1.25317 14.6299 1.18278C14.2858 1.11239 13.8713 1.06938 13.3864 1.05374C12.9171 1.02246 12.487 1.0029 12.096 0.995085C11.7049 0.987265 10.8994 0.983355 9.6794 0.983355ZM9.70287 5.39419C9.06157 5.39419 8.45939 5.5115 7.8963 5.74611C7.33322 5.99638 6.84052 6.32875 6.4182 6.74325C5.99589 7.15774 5.66742 7.64653 5.43281 8.20961C5.18254 8.7727 5.05742 9.37489 5.05742 10.0162C5.05742 10.6575 5.18254 11.2597 5.43281 11.8227C5.66742 12.3858 5.99589 12.8746 6.4182 13.2891C6.84052 13.7036 7.33322 14.036 7.8963 14.2862C8.45939 14.5209 9.06157 14.6382 9.70287 14.6382C10.3442 14.6382 10.9463 14.5209 11.5094 14.2862C12.0725 14.036 12.5613 13.7036 12.9758 13.2891C13.3903 12.8746 13.7227 12.3858 13.9729 11.8227C14.2075 11.2597 14.3249 10.6575 14.3249 10.0162C14.3249 9.37489 14.2075 8.7727 13.9729 8.20961C13.7227 7.64653 13.3903 7.15774 12.9758 6.74325C12.5613 6.32875 12.0725 5.99638 11.5094 5.74611C10.9463 5.5115 10.3442 5.39419 9.70287 5.39419ZM9.70287 13.0193C8.87388 13.0193 8.16611 12.726 7.57957 12.1395C6.99302 11.5529 6.69975 10.8452 6.69975 10.0162C6.69975 9.18719 6.99302 8.47942 7.57957 7.89288C8.16611 7.30633 8.87388 7.01306 9.70287 7.01306C10.5319 7.01306 11.2396 7.30633 11.8262 7.89288C12.4127 8.47942 12.706 9.18719 12.706 10.0162C12.706 10.8452 12.4127 11.5529 11.8262 12.1395C11.2396 12.726 10.5319 13.0193 9.70287 13.0193ZM15.5449 5.18303C15.5449 5.48021 15.4393 5.73047 15.2281 5.93381C15.017 6.13715 14.7628 6.23881 14.4656 6.23881C14.1684 6.23881 13.9143 6.13715 13.7031 5.93381C13.492 5.73047 13.3864 5.48021 13.3864 5.18303C13.3864 4.88585 13.492 4.63168 13.7031 4.42052C13.9143 4.20936 14.1684 4.10378 14.4656 4.10378C14.7628 4.10378 15.017 4.20936 15.2281 4.42052C15.4393 4.63168 15.5449 4.88585 15.5449 5.18303Z" fill="white"/>
</svg>
