<svg width="17" height="17" viewBox="0 0 17 17" fill="none" xmlns="http://www.w3.org/2000/svg">
<path d="M1.06883 16.4301H4.1658V5.59073H1.06883V16.4301ZM2.54693 4.2534H2.52347C1.96039 4.2534 1.5107 4.06962 1.17441 3.70205C0.838126 3.33448 0.669983 2.89261 0.669983 2.37645C0.669983 1.84465 0.842037 1.39887 1.18614 1.03912C1.53025 0.679375 1.99167 0.4995 2.57039 0.4995C3.13348 0.4995 3.58317 0.679375 3.91945 1.03912C4.25574 1.39887 4.42388 1.84465 4.42388 2.37645C4.42388 2.89261 4.25574 3.33448 3.91945 3.70205C3.58317 4.06962 3.12566 4.2534 2.54693 4.2534ZM16.6006 16.4301H13.0813V10.8227C13.0813 10.0876 12.9366 9.49322 12.6473 9.03962C12.3579 8.58603 11.9082 8.35923 11.2982 8.35923C10.8446 8.35923 10.4849 8.5 10.219 8.78154C9.95306 9.06309 9.75755 9.36027 9.63242 9.67309C9.5855 9.79822 9.56203 9.939 9.56203 10.0954C9.56203 10.2518 9.56203 10.4082 9.56203 10.5646V16.4301H6.06621C6.06621 16.4301 6.06621 15.9061 6.06621 14.8582C6.06621 13.8102 6.07012 12.641 6.07795 11.3506C6.08577 10.0602 6.08968 8.83629 6.08968 7.67883C6.08968 6.52138 6.08186 5.82535 6.06621 5.59073H9.56203V7.30344C9.65588 6.92805 9.97262 6.53311 10.5122 6.11862C11.0519 5.70413 11.7675 5.49688 12.659 5.49688C13.7539 5.49688 14.6845 5.89573 15.451 6.69344C16.2174 7.49114 16.6006 8.7268 16.6006 10.4004V16.4301Z" fill="white"/>
</svg>
