<svg width="20" height="18" viewBox="0 0 20 18" fill="none" xmlns="http://www.w3.org/2000/svg">
<path d="M19.9087 8.81962C19.9087 8.24089 19.6976 7.74428 19.2753 7.32979C18.8529 6.9153 18.3524 6.70805 17.7737 6.70805C17.4921 6.70805 17.2223 6.76279 16.9643 6.87228C16.7062 6.98177 16.4833 7.12254 16.2956 7.2946C15.5761 6.82536 14.7393 6.44606 13.7852 6.15669C12.8311 5.86733 11.8066 5.69919 10.7117 5.65226L11.9082 1.92183L15.1225 2.67261V2.71953C15.1225 3.20441 15.2906 3.61499 15.6269 3.95128C15.9632 4.28757 16.3738 4.45571 16.8587 4.45571C17.3436 4.45571 17.7541 4.28757 18.0904 3.95128C18.4267 3.61499 18.5949 3.20441 18.5949 2.71953C18.5949 2.25029 18.4267 1.84362 18.0904 1.49951C17.7541 1.15541 17.3436 0.983351 16.8587 0.983351C16.4833 0.983351 16.1509 1.08893 15.8615 1.30009C15.5722 1.51124 15.3649 1.77323 15.2398 2.08606L11.7675 1.28835C11.6892 1.27271 11.6189 1.28053 11.5563 1.31182C11.4937 1.3431 11.4468 1.39784 11.4155 1.47605L10.1017 5.65226C8.95985 5.66791 7.88842 5.82041 6.88738 6.10977C5.88634 6.39913 5.00261 6.78625 4.23619 7.27113C4.04849 7.09908 3.83343 6.96222 3.59099 6.86055C3.34855 6.75888 3.08656 6.70805 2.80501 6.70805C2.22629 6.70805 1.72577 6.9153 1.30345 7.32979C0.88114 7.74428 0.669983 8.24089 0.669983 8.81962C0.669983 9.21065 0.767741 9.56649 0.963256 9.88713C1.15877 10.2078 1.41294 10.4619 1.72577 10.6496C1.71013 10.7591 1.69448 10.8686 1.67884 10.9781C1.6632 11.0876 1.65538 11.2049 1.65538 11.33C1.65538 12.1121 1.88218 12.8472 2.33578 13.5355C2.78937 14.2237 3.40329 14.8259 4.17753 15.342C4.95178 15.8582 5.86288 16.2649 6.91084 16.562C7.95881 16.8592 9.06933 17.0078 10.2424 17.0078C11.4312 17.0078 12.5495 16.8592 13.5975 16.562C14.6298 16.2649 15.537 15.8582 16.3191 15.342C17.1011 14.8259 17.7111 14.2237 18.1491 13.5355C18.6027 12.8472 18.8295 12.1121 18.8295 11.33C18.8295 11.2205 18.8256 11.1111 18.8177 11.0016C18.8099 10.8921 18.7982 10.7826 18.7826 10.6731C19.111 10.5011 19.3808 10.2508 19.592 9.92233C19.8031 9.59386 19.9087 9.22629 19.9087 8.81962ZM6.11314 10.2743C6.11314 9.93015 6.23436 9.63296 6.4768 9.3827C6.71924 9.13244 7.02033 9.00731 7.38008 9.00731C7.72419 9.00731 8.02137 9.13244 8.27163 9.3827C8.52189 9.63296 8.64702 9.93015 8.64702 10.2743C8.64702 10.6184 8.52189 10.9155 8.27163 11.1658C8.02137 11.4161 7.72419 11.5412 7.38008 11.5412C7.02033 11.5412 6.71924 11.4161 6.4768 11.1658C6.23436 10.9155 6.11314 10.6184 6.11314 10.2743ZM13.3629 14.0047C13.05 14.3332 12.6395 14.5756 12.1311 14.732C11.6228 14.8884 11.0089 14.9666 10.2894 14.9666C9.56985 14.9666 8.95594 14.8884 8.4476 14.732C7.93925 14.5756 7.52867 14.3332 7.21585 14.0047C7.15328 13.9578 7.122 13.8913 7.122 13.8053C7.122 13.7192 7.15328 13.6528 7.21585 13.6058C7.27841 13.5433 7.3488 13.512 7.427 13.512C7.50521 13.512 7.5756 13.5433 7.63816 13.6058C7.90406 13.8561 8.25208 14.0438 8.68221 14.1689C9.11235 14.2941 9.64806 14.3566 10.2894 14.3566C10.9306 14.3566 11.4664 14.2941 11.8965 14.1689C12.3266 14.0438 12.6746 13.8561 12.9405 13.6058C13.0031 13.5433 13.0735 13.512 13.1517 13.512C13.2299 13.512 13.3003 13.5433 13.3629 13.6058C13.4254 13.6528 13.4567 13.7192 13.4567 13.8053C13.4567 13.8913 13.4254 13.9578 13.3629 14.0047ZM13.2221 11.5412C12.8623 11.5412 12.5612 11.4161 12.3188 11.1658C12.0764 10.9155 11.9551 10.6184 11.9551 10.2743C11.9551 9.93015 12.0764 9.63296 12.3188 9.3827C12.5612 9.13244 12.8623 9.00731 13.2221 9.00731C13.5662 9.00731 13.8595 9.13244 14.1019 9.3827C14.3443 9.63296 14.4656 9.93015 14.4656 10.2743C14.4656 10.6184 14.3443 10.9155 14.1019 11.1658C13.8595 11.4161 13.5662 11.5412 13.2221 11.5412Z" fill="white"/>
</svg>
