<svg width="18" height="15" viewBox="0 0 18 15" fill="none" xmlns="http://www.w3.org/2000/svg">
<path d="M1.84707 6.47654C2.98888 5.97602 4.03685 5.52242 4.99096 5.11575C5.94508 4.70908 6.80144 4.34151 7.56004 4.01304C8.31864 3.68458 8.97948 3.39522 9.54257 3.14495C10.1213 2.89469 10.5984 2.69136 10.9737 2.53495C13.1479 1.62775 14.5947 1.04903 15.3142 0.798767C16.0337 0.548507 16.542 0.415556 16.8392 0.399915C16.9018 0.399915 16.9917 0.411646 17.109 0.435108C17.2263 0.45857 17.3319 0.509404 17.4258 0.58761C17.504 0.650175 17.5587 0.720561 17.59 0.798767C17.6213 0.876973 17.6447 0.947359 17.6604 1.00992C17.676 1.07249 17.6877 1.16634 17.6956 1.29147C17.7034 1.4166 17.6995 1.52608 17.6838 1.61993C17.6213 2.24558 17.5196 3.05111 17.3788 4.03651C17.2381 5.03755 17.0816 6.07769 16.9096 7.15694C16.7375 8.23618 16.5577 9.29197 16.37 10.3243C16.1979 11.341 16.0415 12.2012 15.9007 12.9051C15.7912 13.4838 15.6387 13.8905 15.4432 14.1251C15.2477 14.3597 15.0483 14.4849 14.845 14.5005C14.3914 14.5474 13.973 14.434 13.5897 14.1603C13.2065 13.8866 12.7959 13.609 12.358 13.3274C11.6698 12.8738 11.0832 12.4789 10.5984 12.1426C10.1135 11.8063 9.53475 11.4192 8.86217 10.9812C8.08011 10.4651 7.82985 10.0349 8.11139 9.69082C8.39293 9.34671 8.75268 8.94004 9.19064 8.4708C9.2532 8.42388 9.51128 8.18926 9.96488 7.76694C10.4028 7.34463 10.8838 6.89103 11.4078 6.40616C11.9318 5.92128 12.4049 5.45986 12.8272 5.0219C13.2652 4.59959 13.492 4.34933 13.5076 4.27112C13.5233 4.23984 13.5272 4.19292 13.5194 4.13035C13.5115 4.06779 13.4842 4.02086 13.4372 3.98958C13.3903 3.94266 13.3356 3.92311 13.273 3.93093C13.2104 3.93875 13.1557 3.94266 13.1088 3.94266C13.0775 3.9583 12.9133 4.05997 12.6161 4.24766C12.3345 4.43536 11.9161 4.70908 11.3609 5.06883C10.8056 5.42858 10.1291 5.88217 9.33141 6.42962C8.51806 6.97706 7.57959 7.61053 6.51598 8.33003C6.20316 8.53337 5.90206 8.68978 5.6127 8.79927C5.32334 8.90876 5.05353 8.95568 4.80327 8.94004C4.52172 8.94004 4.14633 8.87747 3.6771 8.75234C3.20786 8.62721 2.7699 8.50208 2.36323 8.37695C1.87835 8.22054 1.46777 8.07586 1.13148 7.94291C0.795196 7.80996 0.642694 7.61053 0.673976 7.34463C0.689618 7.20386 0.795196 7.06309 0.990712 6.92232C1.18623 6.78155 1.47168 6.63295 1.84707 6.47654Z" fill="white"/>
</svg>
