<svg width="18" height="16" viewBox="0 0 18 16" fill="none" xmlns="http://www.w3.org/2000/svg">
<path d="M15.6856 3.15955C16.0453 2.92493 16.3582 2.63166 16.6241 2.27973C16.89 1.9278 17.0855 1.54068 17.2106 1.11837C16.8665 1.32171 16.5107 1.50158 16.1431 1.65799C15.7755 1.81441 15.3884 1.93172 14.9817 2.00992C14.6689 1.65017 14.2935 1.36472 13.8556 1.15356C13.4176 0.942406 12.9484 0.836827 12.4478 0.836827C11.4781 0.836827 10.653 1.19658 9.97262 1.91607C9.29222 2.63557 8.95203 3.50366 8.95203 4.52034C8.95203 4.66111 8.95985 4.80188 8.97549 4.94266C8.99113 5.08343 9.01459 5.2242 9.04587 5.36497C8.32638 5.33369 7.62252 5.21638 6.9343 5.01304C6.26173 4.80971 5.62044 4.5438 5.01043 4.21534C4.40042 3.88687 3.82952 3.49584 3.29771 3.04224C2.76591 2.58865 2.28103 2.08031 1.84308 1.51722C1.70231 1.78312 1.58891 2.07249 1.50288 2.38531C1.41685 2.69814 1.37384 3.0266 1.37384 3.37071C1.37384 4.012 1.51461 4.59855 1.79615 5.13035C2.0777 5.66215 2.45309 6.10011 2.92232 6.44422C2.64078 6.42857 2.36706 6.38165 2.10116 6.30344C1.83526 6.22524 1.585 6.11575 1.35038 5.97498V6.0219C1.35038 6.91345 1.61628 7.69552 2.14808 8.36809C2.67988 9.04066 3.34464 9.46298 4.14234 9.63503C4.00157 9.68195 3.85298 9.71324 3.69656 9.72888C3.54015 9.74452 3.38374 9.75234 3.22733 9.75234C3.11784 9.75234 3.00835 9.74843 2.89886 9.74061C2.78937 9.73279 2.67988 9.72106 2.57039 9.70542C2.78937 10.4249 3.19604 11.0271 3.79041 11.512C4.38478 11.9969 5.06517 12.2471 5.8316 12.2628C5.23723 12.7476 4.56856 13.1309 3.82561 13.4124C3.08265 13.6939 2.30449 13.8347 1.49115 13.8347C1.35038 13.8347 1.20961 13.8308 1.06883 13.823C0.928064 13.8152 0.795113 13.8034 0.669983 13.7878C1.4364 14.3039 2.27321 14.7067 3.1804 14.9961C4.0876 15.2854 5.03389 15.4301 6.01929 15.4301C7.6147 15.4301 9.03023 15.1095 10.2659 14.4682C11.5015 13.8425 12.5417 13.0253 13.3863 12.0164C14.2309 11.0076 14.8644 9.88529 15.2867 8.64963C15.7247 7.39833 15.9437 6.16267 15.9437 4.94266C15.9437 4.86445 15.9437 4.78624 15.9437 4.70804C15.9437 4.62983 15.9437 4.55162 15.9437 4.47342C16.2878 4.22316 16.6045 3.93771 16.8939 3.61706C17.1832 3.29641 17.4452 2.9484 17.6798 2.57301C17.367 2.71378 17.0425 2.835 16.7062 2.93667C16.3699 3.03833 16.0297 3.11263 15.6856 3.15955Z" fill="white"/>
</svg>
