<svg width="21" height="15" viewBox="0 0 21 15" fill="none" xmlns="http://www.w3.org/2000/svg">
<path d="M20.2841 2.6757C20.2215 2.47237 20.1355 2.27294 20.026 2.07743C19.9165 1.88191 19.7836 1.70595 19.6272 1.54953C19.4708 1.40876 19.2987 1.27972 19.111 1.16241C18.9233 1.0451 18.72 0.962986 18.501 0.916061C18.11 0.806573 17.4843 0.728367 16.6241 0.681443C15.7638 0.618878 14.8918 0.575865 14.0081 0.552402C13.1243 0.528941 12.354 0.509389 11.6971 0.493748C11.0245 0.493748 10.6882 0.493748 10.6882 0.493748C10.6882 0.493748 10.3519 0.493748 9.67934 0.493748C9.02241 0.509389 8.25208 0.528941 7.36835 0.552402C6.48462 0.575865 5.61262 0.618878 4.75235 0.681443C3.89208 0.728367 3.26643 0.806573 2.8754 0.916061C2.65642 0.962986 2.45309 1.0451 2.26539 1.16241C2.0777 1.27972 1.90564 1.40876 1.74923 1.54953C1.59282 1.70595 1.45987 1.88191 1.35038 2.07743C1.24089 2.27294 1.15486 2.47237 1.0923 2.6757C0.88896 3.45776 0.767741 4.45881 0.728638 5.67882C0.689534 6.89884 0.669983 7.50885 0.669983 7.50885C0.669983 7.50885 0.689534 8.11495 0.728638 9.32714C0.767741 10.5393 0.88896 11.5365 1.0923 12.3185C1.15486 12.5375 1.24089 12.7408 1.35038 12.9285C1.45987 13.1162 1.59282 13.2883 1.74923 13.4447C1.90564 13.6011 2.0777 13.7341 2.26539 13.8436C2.45309 13.953 2.65642 14.0391 2.8754 14.1016C3.26643 14.1955 3.89208 14.2737 4.75235 14.3363C5.61262 14.3832 6.48462 14.4223 7.36835 14.4536C8.25208 14.4848 9.02241 14.5005 9.67934 14.5005C10.3519 14.5005 10.6882 14.5005 10.6882 14.5005C10.6882 14.5005 11.0245 14.5005 11.6971 14.5005C12.354 14.5005 13.1243 14.4848 14.0081 14.4536C14.8918 14.4223 15.7638 14.3832 16.6241 14.3363C17.4843 14.2737 18.11 14.1955 18.501 14.1016C18.72 14.0391 18.9233 13.953 19.111 13.8436C19.2987 13.7341 19.4708 13.6011 19.6272 13.4447C19.7836 13.2883 19.9165 13.1162 20.026 12.9285C20.1355 12.7408 20.2215 12.5375 20.2841 12.3185C20.4874 11.5365 20.6087 10.5393 20.6478 9.32714C20.6869 8.11495 20.7064 7.50885 20.7064 7.50885C20.7064 7.50885 20.6869 6.89884 20.6478 5.67882C20.6087 4.45881 20.4874 3.45776 20.2841 2.6757ZM8.69394 10.512V4.50573L13.879 7.50885L8.69394 10.512Z" fill="white"/>
</svg>
